<svg xmlns="http://www.w3.org/2000/svg" width="30" height="30" viewBox="0 0 30 30">
  <path fill="rgb(51,153,255)" fill-rule="evenodd" d="M16.10526316 7.08996798l1.11578947 3.46225123c.23157895.7052734.8631579 1.17545567 1.6 1.17545567H22.4c1.11578947 0 1.6 1.45329064.67368421 2.13719212l-2.90526316 2.13719211c-.58947368.42743843-.84210526 1.19682759-.61052631 1.90210099l1.11578947 3.46225123c.35789474 1.08996798-.88421053 1.98758867-1.78947368 1.32505911l-2.90526316-2.13719211c-.58947369-.42743843-1.38947369-.42743843-1.97894737 0l-2.90526316 2.13719211c-.90526316.66252956-2.12631579-.23509113-1.78947368-1.32505911l1.11578947-3.46225123c.23157895-.7052734-.02105263-1.47466256-.61052631-1.90210099L6.90526316 13.864867C6 13.20233744 6.46315789 11.72767488 7.57894736 11.72767488h3.57894738c.71578947 0 1.36842105-.47018227 1.6-1.17545567l1.11578947-3.46225123C14.25263158 6 15.76842105 6 16.10526316 7.08996798z"/>
</svg>
