<?xml version="1.0" encoding="UTF-8"?>
<svg xmlns="http://www.w3.org/2000/svg" xmlns:xlink="http://www.w3.org/1999/xlink" viewBox="0 0 48 48" width="48px" height="48px">
<g id="surface184236589">
<rect x="0" y="0" width="48" height="48" style="fill:rgb(86.666667%,86.666667%,86.666667%);fill-opacity:1;stroke:none;"/>
<path style=" stroke:none;fill-rule:nonzero;fill:rgb(38.039216%,38.039216%,38.039216%);fill-opacity:1;" d="M 44 24 C 44 35.046875 35.046875 44 24 44 C 12.953125 44 4 35.046875 4 24 C 4 12.953125 12.953125 4 24 4 C 35.046875 4 44 12.953125 44 24 Z M 44 24 "/>
<path style=" stroke:none;fill-rule:nonzero;fill:rgb(81.960785%,81.960785%,81.960785%);fill-opacity:1;" d="M 34.140625 17.886719 L 33.183594 18.152344 C 32.730469 18.277344 32.371094 17.765625 32.644531 17.382812 L 33.222656 16.574219 C 33.34375 16.375 33.140625 16.132812 32.921875 16.21875 L 32.085938 16.621094 C 31.640625 16.832031 31.179688 16.367188 31.390625 15.925781 L 31.789062 15.089844 C 31.878906 14.871094 31.636719 14.667969 31.4375 14.789062 L 30.628906 15.367188 C 30.246094 15.640625 29.734375 15.28125 29.859375 14.828125 L 30.125 13.871094 C 30.171875 13.640625 29.898438 13.484375 29.722656 13.640625 L 29.027344 14.347656 C 28.699219 14.683594 28.132812 14.417969 28.175781 13.949219 L 28.269531 12.964844 C 28.277344 12.726562 27.980469 12.621094 27.835938 12.804688 L 27.273438 13.621094 C 27.007812 14.007812 26.402344 13.847656 26.363281 13.378906 L 26.285156 12.390625 C 26.253906 12.15625 25.941406 12.101562 25.832031 12.308594 L 25.421875 13.210938 C 25.226562 13.640625 24.601562 13.585938 24.484375 13.128906 L 24.234375 12.171875 C 24.160156 11.945312 23.847656 11.945312 23.773438 12.171875 L 23.523438 13.128906 C 23.40625 13.585938 22.78125 13.640625 22.585938 13.210938 L 22.175781 12.308594 C 22.0625 12.105469 21.753906 12.15625 21.71875 12.390625 L 21.640625 13.378906 C 21.605469 13.847656 21 14.007812 20.734375 13.621094 L 20.171875 12.804688 C 20.027344 12.621094 19.730469 12.726562 19.734375 12.960938 L 19.832031 13.949219 C 19.875 14.417969 19.308594 14.683594 18.980469 14.347656 L 18.285156 13.640625 C 18.109375 13.484375 17.835938 13.640625 17.882812 13.871094 L 18.148438 14.824219 C 18.273438 15.277344 17.761719 15.636719 17.378906 15.363281 L 16.570312 14.789062 C 16.371094 14.664062 16.128906 14.867188 16.214844 15.085938 L 16.644531 15.980469 C 16.84375 16.40625 16.402344 16.847656 15.976562 16.648438 L 15.082031 16.21875 C 14.863281 16.132812 14.660156 16.375 14.785156 16.574219 L 15.359375 17.382812 C 15.632812 17.765625 15.273438 18.277344 14.820312 18.152344 L 13.867188 17.886719 C 13.636719 17.839844 13.480469 18.113281 13.636719 18.289062 L 14.34375 18.984375 C 14.675781 19.3125 14.410156 19.878906 13.945312 19.835938 L 12.957031 19.738281 C 12.722656 19.734375 12.617188 20.03125 12.800781 20.175781 L 13.617188 20.738281 C 14.003906 21.003906 13.839844 21.609375 13.371094 21.644531 L 12.386719 21.722656 C 12.152344 21.757812 12.097656 22.066406 12.304688 22.179688 L 13.207031 22.589844 C 13.636719 22.785156 13.578125 23.410156 13.125 23.527344 L 12.164062 23.773438 C 11.941406 23.847656 11.941406 24.164062 12.164062 24.238281 L 13.125 24.484375 C 13.578125 24.605469 13.636719 25.226562 13.207031 25.421875 L 12.304688 25.835938 C 12.097656 25.945312 12.152344 26.257812 12.386719 26.289062 L 13.371094 26.367188 C 13.84375 26.40625 14.003906 27.011719 13.617188 27.277344 L 12.800781 27.839844 C 12.613281 27.984375 12.722656 28.28125 12.957031 28.273438 L 13.945312 28.179688 C 14.410156 28.132812 14.675781 28.703125 14.339844 29.03125 L 13.632812 29.726562 C 13.476562 29.902344 13.636719 30.175781 13.867188 30.128906 L 14.820312 29.863281 C 15.273438 29.734375 15.632812 30.25 15.359375 30.632812 L 14.785156 31.4375 C 14.660156 31.640625 14.863281 31.878906 15.082031 31.792969 L 15.976562 31.367188 C 16.402344 31.164062 16.84375 31.609375 16.640625 32.03125 L 16.214844 32.925781 C 16.128906 33.144531 16.371094 33.347656 16.570312 33.226562 L 17.378906 32.648438 C 17.761719 32.375 18.273438 32.734375 18.148438 33.1875 L 17.882812 34.144531 C 17.835938 34.375 18.109375 34.53125 18.28125 34.375 L 18.976562 33.667969 C 19.308594 33.332031 19.875 33.597656 19.828125 34.066406 L 19.734375 35.054688 C 19.730469 35.289062 20.023438 35.394531 20.171875 35.210938 L 20.734375 34.394531 C 21 34.007812 21.605469 34.171875 21.640625 34.636719 L 21.71875 35.625 C 21.753906 35.859375 22.0625 35.914062 22.175781 35.707031 L 22.585938 34.804688 C 22.78125 34.375 23.40625 34.429688 23.523438 34.886719 L 23.769531 35.847656 C 23.84375 36.070312 24.160156 36.070312 24.234375 35.847656 L 24.480469 34.886719 C 24.601562 34.429688 25.222656 34.375 25.417969 34.804688 L 25.828125 35.707031 C 25.941406 35.910156 26.253906 35.859375 26.285156 35.625 L 26.363281 34.636719 C 26.402344 34.167969 27.007812 34.007812 27.273438 34.394531 L 27.832031 35.210938 C 27.980469 35.394531 28.277344 35.289062 28.269531 35.054688 L 28.175781 34.066406 C 28.128906 33.597656 28.699219 33.332031 29.027344 33.671875 L 29.722656 34.378906 C 29.898438 34.53125 30.171875 34.375 30.121094 34.144531 L 29.859375 33.1875 C 29.730469 32.734375 30.246094 32.378906 30.628906 32.648438 L 31.433594 33.226562 C 31.636719 33.347656 31.875 33.144531 31.789062 32.929688 L 31.363281 32.03125 C 31.160156 31.609375 31.605469 31.164062 32.027344 31.367188 L 32.921875 31.796875 C 33.140625 31.882812 33.34375 31.640625 33.222656 31.441406 L 32.644531 30.632812 C 32.371094 30.25 32.730469 29.738281 33.183594 29.863281 L 34.140625 30.128906 C 34.367188 30.175781 34.527344 29.902344 34.371094 29.726562 L 33.664062 29.03125 C 33.328125 28.703125 33.59375 28.136719 34.0625 28.179688 L 35.046875 28.273438 C 35.28125 28.28125 35.390625 27.984375 35.207031 27.839844 L 34.390625 27.277344 C 34.003906 27.011719 34.164062 26.40625 34.632812 26.367188 L 35.621094 26.289062 C 35.851562 26.257812 35.90625 25.945312 35.699219 25.835938 L 34.800781 25.425781 C 34.371094 25.230469 34.425781 24.605469 34.882812 24.488281 L 35.839844 24.238281 C 36.0625 24.164062 36.0625 23.851562 35.839844 23.777344 L 34.882812 23.527344 C 34.425781 23.410156 34.371094 22.785156 34.800781 22.589844 L 35.699219 22.179688 C 35.90625 22.066406 35.851562 21.757812 35.621094 21.722656 L 34.566406 21.640625 C 34.121094 21.605469 33.964844 21.027344 34.335938 20.773438 L 35.207031 20.175781 C 35.390625 20.03125 35.28125 19.734375 35.046875 19.738281 L 34.0625 19.835938 C 33.59375 19.878906 33.328125 19.3125 33.664062 18.984375 L 34.371094 18.289062 C 34.527344 18.113281 34.367188 17.839844 34.140625 17.886719 Z M 23.496094 23.136719 C 23.976562 22.859375 24.589844 23.023438 24.867188 23.503906 C 25.144531 23.980469 24.980469 24.59375 24.5 24.871094 C 24.019531 25.148438 23.40625 24.984375 23.128906 24.503906 C 22.851562 24.023438 23.015625 23.410156 23.496094 23.136719 Z M 17.476562 30.691406 C 16.875 30.109375 16.34375 29.4375 15.90625 28.675781 C 13.722656 24.898438 14.488281 20.234375 17.476562 17.324219 C 18.089844 16.722656 19.117188 16.886719 19.546875 17.632812 L 22.570312 22.863281 C 22.976562 23.570312 22.976562 24.4375 22.570312 25.140625 L 19.546875 30.378906 C 19.117188 31.121094 18.09375 31.289062 17.476562 30.691406 Z M 33.046875 26.328125 C 32.445312 28.675781 30.933594 30.789062 28.667969 32.097656 C 26.402344 33.402344 23.820312 33.65625 21.484375 33.003906 C 20.648438 32.769531 20.265625 31.800781 20.699219 31.046875 L 23.496094 26.203125 C 24.042969 25.253906 25.054688 24.671875 26.148438 24.671875 L 31.746094 24.671875 C 32.613281 24.671875 33.261719 25.488281 33.046875 26.328125 Z M 33.050781 21.699219 C 33.257812 22.535156 32.605469 23.335938 31.746094 23.335938 L 25.699219 23.335938 C 24.882812 23.335938 24.132812 22.902344 23.726562 22.195312 L 20.703125 16.964844 C 20.273438 16.21875 20.644531 15.246094 21.472656 15.015625 C 25.488281 13.882812 29.910156 15.550781 32.089844 19.332031 C 32.527344 20.09375 32.84375 20.890625 33.050781 21.699219 Z M 33.050781 21.699219 "/>
<path style=" stroke:none;fill-rule:nonzero;fill:rgb(74.117649%,74.117649%,74.117649%);fill-opacity:1;" d="M 39.191406 14.835938 L 37.761719 15.234375 C 37.082031 15.421875 36.542969 14.652344 36.953125 14.078125 L 37.816406 12.871094 C 38 12.570312 37.695312 12.210938 37.367188 12.339844 L 36.113281 12.9375 C 35.449219 13.253906 34.757812 12.5625 35.074219 11.898438 L 35.671875 10.640625 C 35.800781 10.3125 35.441406 10.011719 35.140625 10.195312 L 33.929688 11.058594 C 33.355469 11.46875 32.589844 10.929688 32.777344 10.25 L 33.171875 8.816406 C 33.242188 8.472656 32.835938 8.238281 32.570312 8.472656 L 31.53125 9.53125 C 31.035156 10.03125 30.1875 9.636719 30.253906 8.9375 L 30.394531 7.457031 C 30.40625 7.105469 29.960938 6.945312 29.742188 7.21875 L 28.898438 8.441406 C 28.5 9.023438 27.59375 8.777344 27.539062 8.078125 L 27.421875 6.597656 C 27.371094 6.246094 26.90625 6.164062 26.738281 6.476562 L 26.121094 7.828125 C 25.828125 8.46875 24.894531 8.386719 24.71875 7.703125 L 24.347656 6.265625 C 24.234375 5.933594 23.765625 5.933594 23.652344 6.265625 L 23.28125 7.703125 C 23.105469 8.386719 22.171875 8.46875 21.878906 7.828125 L 21.261719 6.476562 C 21.09375 6.164062 20.628906 6.246094 20.578125 6.597656 L 20.460938 8.078125 C 20.40625 8.78125 19.5 9.023438 19.101562 8.441406 L 18.257812 7.21875 C 18.039062 6.941406 17.597656 7.105469 17.605469 7.453125 L 17.746094 8.933594 C 17.816406 9.636719 16.964844 10.03125 16.472656 9.527344 L 15.429688 8.46875 C 15.167969 8.238281 14.757812 8.472656 14.828125 8.816406 L 15.226562 10.25 C 15.414062 10.925781 14.644531 11.464844 14.070312 11.058594 L 12.863281 10.195312 C 12.5625 10.011719 12.203125 10.3125 12.332031 10.640625 L 12.96875 11.980469 C 13.273438 12.617188 12.609375 13.28125 11.972656 12.976562 L 10.632812 12.339844 C 10.304688 12.210938 10.003906 12.570312 10.1875 12.871094 L 11.050781 14.078125 C 11.460938 14.652344 10.921875 15.421875 10.242188 15.234375 L 8.808594 14.835938 C 8.464844 14.765625 8.230469 15.175781 8.464844 15.4375 L 9.523438 16.480469 C 10.023438 16.972656 9.628906 17.824219 8.925781 17.757812 L 7.449219 17.613281 C 7.097656 17.605469 6.933594 18.046875 7.210938 18.265625 L 8.433594 19.105469 C 9.015625 19.507812 8.769531 20.414062 8.070312 20.46875 L 6.589844 20.585938 C 6.238281 20.636719 6.15625 21.101562 6.46875 21.269531 L 7.820312 21.886719 C 8.460938 22.175781 8.378906 23.113281 7.695312 23.289062 L 6.257812 23.660156 C 5.925781 23.769531 5.925781 24.242188 6.257812 24.355469 L 7.695312 24.726562 C 8.378906 24.902344 8.460938 25.835938 7.820312 26.128906 L 6.46875 26.746094 C 6.15625 26.910156 6.238281 27.378906 6.589844 27.429688 L 8.070312 27.546875 C 8.769531 27.601562 9.015625 28.507812 8.433594 28.90625 L 7.210938 29.75 C 6.933594 29.96875 7.097656 30.410156 7.445312 30.402344 L 8.925781 30.261719 C 9.628906 30.195312 10.023438 31.042969 9.519531 31.539062 L 8.460938 32.578125 C 8.230469 32.84375 8.464844 33.25 8.808594 33.179688 L 10.238281 32.78125 C 10.917969 32.59375 11.457031 33.363281 11.046875 33.9375 L 10.183594 35.144531 C 10 35.445312 10.304688 35.808594 10.632812 35.679688 L 11.972656 35.039062 C 12.609375 34.734375 13.269531 35.398438 12.96875 36.035156 L 12.328125 37.375 C 12.199219 37.703125 12.5625 38.007812 12.859375 37.820312 L 14.070312 36.957031 C 14.644531 36.550781 15.410156 37.089844 15.222656 37.765625 L 14.828125 39.199219 C 14.757812 39.542969 15.164062 39.78125 15.429688 39.546875 L 16.46875 38.484375 C 16.964844 37.984375 17.8125 38.378906 17.746094 39.082031 L 17.605469 40.558594 C 17.59375 40.910156 18.039062 41.074219 18.257812 40.796875 L 19.097656 39.574219 C 19.496094 38.992188 20.402344 39.234375 20.460938 39.9375 L 20.574219 41.417969 C 20.628906 41.765625 21.09375 41.847656 21.261719 41.539062 L 21.875 40.1875 C 22.167969 39.546875 23.101562 39.628906 23.277344 40.3125 L 23.652344 41.75 C 23.761719 42.082031 24.234375 42.082031 24.34375 41.75 L 24.71875 40.3125 C 24.894531 39.628906 25.828125 39.546875 26.121094 40.1875 L 26.734375 41.539062 C 26.902344 41.847656 27.367188 41.765625 27.421875 41.417969 L 27.535156 39.9375 C 27.59375 39.234375 28.5 38.992188 28.898438 39.574219 L 29.738281 40.796875 C 29.957031 41.074219 30.402344 40.910156 30.394531 40.558594 L 30.25 39.082031 C 30.183594 38.378906 31.035156 37.984375 31.527344 38.484375 L 32.570312 39.546875 C 32.832031 39.777344 33.242188 39.542969 33.171875 39.199219 L 32.773438 37.765625 C 32.585938 37.089844 33.355469 36.550781 33.925781 36.957031 L 35.136719 37.820312 C 35.4375 38.007812 35.796875 37.703125 35.667969 37.375 L 35.03125 36.035156 C 34.726562 35.398438 35.390625 34.734375 36.027344 35.039062 L 37.367188 35.679688 C 37.695312 35.808594 37.996094 35.445312 37.8125 35.144531 L 36.949219 33.9375 C 36.539062 33.363281 37.078125 32.59375 37.757812 32.78125 L 39.191406 33.179688 C 39.535156 33.25 39.769531 32.839844 39.535156 32.578125 L 38.476562 31.535156 C 37.976562 31.042969 38.371094 30.191406 39.070312 30.261719 L 40.550781 30.402344 C 40.902344 30.410156 41.0625 29.96875 40.789062 29.75 L 39.5625 28.90625 C 38.984375 28.507812 39.226562 27.601562 39.929688 27.546875 L 41.410156 27.429688 C 41.757812 27.378906 41.839844 26.914062 41.53125 26.746094 L 40.179688 26.128906 C 39.539062 25.835938 39.621094 24.902344 40.300781 24.726562 L 41.738281 24.355469 C 42.074219 24.242188 42.074219 23.769531 41.738281 23.660156 L 40.300781 23.289062 C 39.621094 23.113281 39.539062 22.175781 40.179688 21.886719 L 41.53125 21.269531 C 41.839844 21.101562 41.757812 20.636719 41.410156 20.585938 L 39.832031 20.460938 C 39.160156 20.40625 38.929688 19.542969 39.484375 19.164062 L 40.789062 18.265625 C 41.066406 18.046875 40.902344 17.605469 40.550781 17.613281 L 39.074219 17.757812 C 38.371094 17.824219 37.976562 16.972656 38.476562 16.480469 L 39.539062 15.4375 C 39.769531 15.175781 39.535156 14.765625 39.191406 14.835938 Z M 23.496094 23.136719 C 23.972656 22.859375 24.585938 23.023438 24.863281 23.5 C 25.136719 23.980469 24.972656 24.589844 24.496094 24.867188 C 24.019531 25.144531 23.40625 24.980469 23.128906 24.5 C 22.855469 24.023438 23.019531 23.410156 23.496094 23.136719 Z M 14.226562 34.019531 C 13.328125 33.148438 12.527344 32.140625 11.871094 31 C 8.601562 25.339844 9.746094 18.355469 14.222656 13.992188 C 15.148438 13.09375 16.683594 13.335938 17.328125 14.453125 L 21.855469 22.296875 C 22.464844 23.351562 22.464844 24.652344 21.855469 25.707031 L 17.324219 33.554688 C 16.683594 34.667969 15.152344 34.914062 14.226562 34.019531 Z M 37.554688 27.484375 C 36.652344 31 34.390625 34.167969 30.996094 36.125 C 27.601562 38.085938 23.730469 38.460938 20.234375 37.484375 C 18.980469 37.136719 18.40625 35.679688 19.058594 34.554688 L 23.246094 27.296875 C 24.066406 25.878906 25.582031 25.003906 27.222656 25.003906 L 35.605469 25.003906 C 36.90625 25 37.878906 26.226562 37.554688 27.484375 Z M 37.558594 20.550781 C 37.871094 21.796875 36.890625 23 35.605469 23 L 26.542969 23 C 25.324219 23 24.199219 22.351562 23.589844 21.296875 L 19.0625 13.453125 C 18.414062 12.335938 18.972656 10.882812 20.214844 10.535156 C 26.230469 8.835938 32.851562 11.339844 36.121094 17.003906 C 36.777344 18.140625 37.253906 19.335938 37.558594 20.550781 Z M 37.558594 20.550781 "/>
</g>
</svg>
